# xmcd CD database file
#
# Track frame offsets:
#	150
#	11007
#	29327
#	45502
#	69325
#	82125
#	100290
#	115997
#	128902
#	147367
#	167217
#	196132
#	211795
#	234657
#
# Disc length: 3410 seconds
#
# Revision: 1
# Processed by: cddbd v1.5PL3 Copyright (c) Steve Scherf et al.
# Submitted via: CDex 1.51
#
DISCID=c10d500e
DTITLE=Little Mike and the Tornados - Flynn's Place
DYEAR=1995
DGENRE=Blues
TTITLE0=H.W. Boogie
TTITLE1=Fool for You
TTITLE2=Don't Speak about Love
TTITLE3=Rather be Lying with You than to You
TTITLE4=Blues
TTITLE5=Don't bother My Baby
TTITLE6=Henhouse
TTITLE7=Where's My Love Tonight?
TTITLE8=You Drive Me Crazy
TTITLE9=Everybody's Talkin'
TTITLE10=Nobody Knows New York
TTITLE11=Sweet Little Girl
TTITLE12=Rainy Day Women #12 and 35
TTITLE13=Flynn's Place
EXTD=YEAR: 1995
EXTT0=
EXTT1=
EXTT2=
EXTT3=
EXTT4=
EXTT5=
EXTT6=
EXTT7=
EXTT8=
EXTT9=
EXTT10=
EXTT11=
EXTT12=
EXTT13=
PLAYORDER=
